#N canvas 124 65 1259 711 12;
#X obj 247 558 osc~;
#X obj 346 365 t b b;
#X obj 331 614 *~;
#X obj 388 697 dac~;
#X obj 346 437 pack;
#X obj 346 415 f;
#X msg 346 460 0 \$1;
#X obj 346 393 del 2;
#X text 392 373 amp decay;
#X obj 346 511 line~;
#X obj 346 551 *~;
#X obj 259 226 t b b;
#X obj 247 486 line~;
#X obj 188 359 nbx 5 14 -1e+37 1e+37 0 1 empty tom_fall_time empty 0 -8 0 10 #fcfcfc #000000 #000000 409.291 256;
#X obj 182 296 nbx 5 14 -1e+37 1e+37 0 0 empty tom_end_pitch empty 0 -8 0 10 #fcfcfc #000000 #000000 0 256;
#X obj 262 317 nbx 5 14 -1e+37 1e+37 0 1 empty tom_max_pitch empty 0 -8 0 10 #fcfcfc #000000 #000000 597.165 256;
#X obj 167 381 pack;
#X msg 167 406 \$1 \$2;
#X text 261 298 max pitch;
#X obj 247 383 pack;
#X msg 111 429 0 0;
#X obj 111 376 loadbang;
#X obj 111 405 del 2;
#X obj 247 342 f;
#X obj 167 318 f;
#X obj 167 255 del 1;
#X msg 247 408 \$1 0;
#X text 179 277 end pitch;
#X text 189 340 fall time;
#X obj 462 640 *~;
#X msg 393 460 1 1.5;
#X obj 331 641 hip~ 400;
#X obj 331 665 hip~ 400;
#X obj 395 615 nbx 5 14 0 5000 0 0 empty tom_hpf empty 0 -8 0 10 #fcfcfc #000000 #000000 0 256;
#X text 394 597 HPF;
#X obj 394 396 nbx 5 14 10 1400 1 0 empty tom_amp_decay empty 0 -8 0 10 #fcfcfc #000000 #000000 0 256;
#X obj 736 268 t b b;
#X obj 626 544 *~;
#X obj 736 340 pack;
#X obj 736 318 f;
#X msg 736 363 0 \$1;
#X obj 751 214 nbx 5 14 2 175 0 1 empty hihat_cl_decay empty 0 -8 0 10 #fcfcfc #000000 #000000 31.9685 256;
#X obj 626 647 hip~ 10000;
#X obj 626 623 hip~ 10000;
#X obj 626 598 hip~ 10000;
#X obj 626 573 hip~ 10000;
#X text 751 193 cl decay;
#X obj 809 269 t b b;
#X obj 809 341 pack;
#X obj 809 319 f;
#X msg 809 364 0 \$1;
#X obj 824 215 nbx 5 14 6 2000 0 1 empty hihat_op_decay empty 0 -8 0 10 #fcfcfc #000000 #000000 948.047 256;
#X text 824 194 op decay;
#X obj 731 539 nbx 5 14 500 6500 0 1 empty hihat_hpf empty 0 -8 0 10 #fcfcfc #000000 #000000 1633.86 256;
#X text 731 521 hpf;
#X msg 781 363 1 0;
#X msg 854 364 1 0;
#N canvas 126 363 450 300 osc_pair_1 0;
#X obj 125 273 expr~ $v1 > 0.5;
#X obj 125 246 osc~ 8220;
#X obj 224 106 osc~ 7540;
#X obj 125 45 nbx 5 14 2000 10000 0 1 empty hihat_pitch_1 empty 0 -8 0 10 #fcfcfc #000000 #000000 4771.65 256;
#X text 78 41 pitch 1;
#X obj 125 301 outlet~;
#X obj 125 89 sig~;
#X obj 125 222 +~;
#X obj 224 82 - 220;
#X obj 251 -16 inlet;
#X obj 186 10 bng 15 250 50 0 empty empty empty 17 7 0 10 #fcfcfc #000000 #000000;
#X obj 224 198 *~;
#X obj 305 89 nbx 5 14 0 10000 0 1 empty empty empty 0 -8 0 10 #fcfcfc #000000 #000000 7086.61 256;
#X obj 224 146 expr~ $v1 > 0.5;
#X obj 305 20 inlet;
#X connect 0 0 5 0;
#X connect 1 0 0 0;
#X connect 2 0 13 0;
#X connect 3 0 6 0;
#X connect 3 0 8 0;
#X connect 6 0 7 0;
#X connect 7 0 1 0;
#X connect 8 0 2 0;
#X connect 9 0 10 0;
#X connect 9 0 8 1;
#X connect 10 0 3 0;
#X connect 10 0 12 0;
#X connect 11 0 7 1;
#X connect 12 0 11 1;
#X connect 13 0 11 0;
#X connect 14 0 12 0;
#X restore 530 402 pd osc_pair_1;
#N canvas 497 355 474 372 osc_pair_2 0;
#X text 85 46 pitch 2;
#X obj 134 49 nbx 5 14 2000 10000 0 1 empty hihat_pitch_2 empty 0 -8 0 10 #fcfcfc #000000 #000000 7354.33 256;
#X obj 134 281 outlet~;
#X obj 233 140 expr~ $v1 > 0.5;
#X obj 134 256 expr~ $v1 > 0.5;
#X obj 134 229 osc~ 8220;
#X obj 233 116 osc~ 7540;
#X obj 134 94 sig~;
#X obj 134 205 +~;
#X obj 233 93 + 300;
#X obj 260 -24 inlet;
#X obj 260 59 * 1.55;
#X obj 233 6 bng 15 250 50 0 empty empty empty 17 7 0 10 #fcfcfc #000000 #000000;
#X obj 315 99 nbx 5 14 0 10000 0 1 empty empty empty 0 -8 0 10 #fcfcfc #000000 #000000 7086.61 256;
#X obj 233 165 *~;
#X obj 315 -24 inlet;
#X connect 1 0 7 0;
#X connect 1 0 9 0;
#X connect 3 0 14 0;
#X connect 4 0 2 0;
#X connect 5 0 4 0;
#X connect 6 0 3 0;
#X connect 7 0 8 0;
#X connect 8 0 5 0;
#X connect 9 0 6 0;
#X connect 10 0 11 0;
#X connect 10 0 12 0;
#X connect 11 0 9 1;
#X connect 12 0 1 0;
#X connect 12 0 13 0;
#X connect 13 0 14 1;
#X connect 14 0 8 1;
#X connect 15 0 13 0;
#X restore 583 424 pd osc_pair_2;
#N canvas 481 436 524 526 osc_pair_3 0;
#X obj 145 55 nbx 5 14 2000 10000 0 1 empty hihat_pitch_3 empty 0 -8 0 10 #fcfcfc #000000 #000000 6976.38 256;
#X text 97 51 pitch 3;
#X obj 145 325 outlet~;
#X obj 244 150 expr~ $v1 > 0.5;
#X obj 145 297 expr~ $v1 > 0.5;
#X obj 145 270 osc~ 8220;
#X obj 244 126 osc~ 7540;
#X obj 145 86 sig~;
#X obj 145 246 +~;
#X obj 244 103 + 250;
#X obj 271 -26 inlet;
#X obj 271 69 * 1.25;
#X obj 244 1 bng 15 250 50 0 empty empty empty 17 7 0 10 #fcfcfc #000000 #000000;
#X obj 325 109 nbx 5 14 0 10000 0 1 empty empty empty 0 -8 0 10 #fcfcfc #000000 #000000 7086.61 256;
#X obj 244 182 *~;
#X obj 325 2 inlet;
#X connect 0 0 7 0;
#X connect 0 0 9 0;
#X connect 3 0 14 0;
#X connect 4 0 2 0;
#X connect 5 0 4 0;
#X connect 6 0 3 0;
#X connect 7 0 8 0;
#X connect 8 0 5 0;
#X connect 9 0 6 0;
#X connect 10 0 11 0;
#X connect 10 0 12 0;
#X connect 11 0 9 1;
#X connect 12 0 9 0;
#X connect 12 0 0 0;
#X connect 12 0 13 0;
#X connect 13 0 14 1;
#X connect 14 0 8 1;
#X connect 15 0 13 0;
#X restore 626 447 pd osc_pair_3;
#X obj 626 709 dac~;
#X obj 626 679 *~ 0.2;
#X obj 736 414 line~;
#X obj 691 511 *~;
#X text 529 334 fm width;
#X obj 530 355 nbx 5 14 0 10000 0 1 empty hihat_fm_width empty 0 -8 0 10 #fcfcfc #000000 #000000 3624.8 256;
#X obj 658 350 nbx 5 14 0 10000 0 1 empty hihat_fm_depth empty 0 -8 0 10 #fcfcfc #000000 #000000 7086.61 256;
#X text 657 329 fm depth;
#X text 670 131 Hihat close;
#X text 796 134 Hihat open;
#X text 277 164 TOM TOM;
#X obj 1161 474 osc~;
#X obj 1260 330 t b b;
#X obj 1245 552 *~;
#X obj 1302 662 dac~;
#X obj 1260 402 pack;
#X obj 1260 380 f;
#X msg 1260 425 0 \$1;
#X obj 1260 358 del 2;
#X obj 1305 355 nbx 5 14 50 8000 0 1 empty snare_amp_decay empty 0 -8 0 10 #fcfcfc #000000 #000000 51.063 256;
#X text 1306 338 amp decay;
#X obj 1505 255 nbx 5 14 5 600 0 1 empty snare_noise_decay empty 0 -8 0 10 #fcfcfc #000000 #000000 133.976 256;
#X obj 1260 476 line~;
#X obj 1260 516 *~;
#X obj 1134 180 t b b;
#X obj 1161 451 line~;
#X obj 1102 324 nbx 5 14 -1e+37 1e+37 0 1 empty snare_fall_time empty 0 -8 0 10 #fcfcfc #000000 #000000 59.685 256;
#X obj 1096 261 nbx 5 14 -1e+37 1e+37 0 0 empty snare_end_pitch empty 0 -8 0 10 #fcfcfc #000000 #000000 0 256;
#X obj 1176 282 nbx 5 14 -1e+37 1e+37 0 1 empty snare_max_pitch empty 0 -8 0 10 #fcfcfc #000000 #000000 139.213 256;
#X obj 1081 346 pack;
#X msg 1081 371 \$1 \$2;
#X text 1175 263 max pitch;
#X obj 1161 348 pack;
#X obj 1200 451 nbx 5 14 1 15000 0 0 empty snare_fm_pitch empty 0 -8 0 10 #fcfcfc #000000 #000000 0 256;
#X msg 1025 394 0 0;
#X obj 1025 341 loadbang;
#X obj 1025 370 del 2;
#X obj 1161 307 f;
#X obj 1081 283 f;
#X obj 1081 220 del 1;
#X msg 1161 373 \$1 0;
#X obj 1200 476 osc~;
#X obj 1161 507 *~;
#X text 1093 242 end pitch;
#X text 1103 305 fall time;
#X obj 1376 434 noise~;
#X text 1504 237 noise decay;
#X obj 1490 298 t b b;
#X obj 1490 370 pack;
#X obj 1490 348 f;
#X msg 1490 393 0 \$1;
#X obj 1490 434 line~;
#X obj 1490 469 *~;
#X obj 1376 513 *~;
#X obj 1493 509 nbx 5 14 0 1 0 1 empty snare_noise_level empty 0 -8 0 10 #fcfcfc #000000 #000000 0.226772 256;
#X text 1488 492 noise level;
#X floatatom 1508 537 5 0 0 0 - - - 0;
#X obj 1493 561 *;
#X obj 1376 605 *~;
#X msg 1536 393 1 0;
#X msg 1307 425 1 1.5;
#X obj 1245 579 hip~ 400;
#X obj 1245 603 hip~ 400;
#X obj 1308 558 nbx 5 14 0 5000 0 0 empty snare_hpf empty 0 -8 0 10 #fcfcfc #000000 #000000 0 256;
#X text 1307 540 HPF;
#X obj 1376 463 lop~ 1000;
#X obj 1427 436 nbx 5 14 0 10000 0 0 empty snare_lpf empty 0 -8 0 10 #fcfcfc #000000 #000000 0 256;
#X text 1426 418 LPF;
#X text 1199 433 AM pitch;
#X text 1240 122 Snare;
#X obj 950 1031 osc~;
#X obj 939 778 t b b;
#X obj 950 1001 line~;
#X obj 939 834 del 50;
#X obj 1010 757 nbx 5 14 -1e+37 1e+37 0 1 empty kick_fall_time_1 empty 0 -8 0 10 #fcfcfc #000000 #000000 123.606 256;
#X obj 1004 708 nbx 5 14 -1e+37 1e+37 0 0 empty kick_break_pitch empty 0 -8 0 10 #fcfcfc #000000 #000000 0 256;
#X obj 1050 811 nbx 5 14 -1e+37 1e+37 0 1 empty kick_max_pitch empty 0 -8 0 10 #fcfcfc #000000 #000000 300.787 256;
#X obj 989 913 pack;
#X msg 989 938 \$1 \$2;
#X text 997 689 break pitch;
#X text 1050 790 max pitch;
#X msg 1035 938 \$1 0;
#X obj 1035 913 pack;
#X text 1011 738 fall time 1;
#X obj 849 713 nbx 5 14 -1e+37 1e+37 0 0 empty kick_fall_time_2 empty 0 -8 0 10 #fcfcfc #000000 #000000 0 256;
#X text 841 690 fall time 2;
#X msg 939 938 0 \$1;
#X obj 939 913 pack;
#X msg 842 932 0 0;
#X obj 842 872 loadbang;
#X obj 842 901 del 2;
#X obj 939 887 f;
#X obj 1035 872 f;
#X obj 989 847 f;
#X obj 1103 883 t b b;
#X obj 1036 1104 *~;
#X obj 1098 1143 dac~;
#X msg 1148 978 1 2;
#X obj 1103 955 pack;
#X obj 1103 933 f;
#X msg 1103 978 0 \$1;
#X obj 1103 911 del 2;
#X obj 1118 829 nbx 5 14 50 8000 0 1 empty kick_amp_decay empty 0 -8 0 10 #fcfcfc #000000 #000000 287.756 256;
#X text 1118 808 amp decay;
#X obj 955 808 del 1;
#X obj 1181 885 t b b;
#X obj 1181 957 pack;
#X obj 1181 935 f;
#X msg 1181 980 0 \$1;
#X obj 1181 913 del 2;
#X obj 1103 1060 expr~ $v1 > 0.5;
#X obj 1172 1108 *~;
#X obj 1196 852 * 0.05;
#X obj 1226 956 pack;
#X obj 1226 934 f;
#X obj 1241 838 nbx 5 14 0 1 0 1 empty kick_transient empty 0 -8 0 10 #fcfcfc #000000 #000000 0.651968 256;
#X text 1241 817 transient;
#X msg 1226 980 \$1 2;
#X obj 1141 1085 lop~ 350;
#X obj 1181 1031 line~;
#X obj 1103 1029 line~;
#X obj 1062 1069 *~;
#X text 839 609 Kick;
#X obj 355 96 ctlin 20 1;
#X obj 349 160 bng 20 250 50 0 empty empty empty 0 -10 0 12 #fcfcfc #000000 #000000;
#X obj 938 603 bng 20 250 50 0 empty empty empty 0 -10 0 12 #fcfcfc #000000 #000000;
#X obj 938 558 ctlin 21 1;
#X obj 716 174 bng 20 250 50 0 empty empty empty 0 -10 0 12 #fcfcfc #000000 #000000;
#X obj 828 158 bng 20 250 50 0 empty empty empty 0 -10 0 12 #fcfcfc #000000 #000000;
#X obj 1260 152 bng 20 250 50 0 empty empty empty 0 -10 0 12 #fcfcfc #000000 #000000;
#X obj 671 109 ctlin 22 1;
#X obj 795 98 ctlin 23 1;
#X obj 1252 96 ctlin 24 1;
#X connect 0 0 2 0;
#X connect 1 0 7 0;
#X connect 1 1 30 0;
#X connect 2 0 31 0;
#X connect 4 0 6 0;
#X connect 5 0 4 0;
#X connect 6 0 9 0;
#X connect 7 0 5 0;
#X connect 9 0 10 1;
#X connect 9 0 10 0;
#X connect 10 0 2 1;
#X connect 11 0 25 0;
#X connect 11 1 23 0;
#X connect 12 0 0 0;
#X connect 13 0 16 1;
#X connect 14 0 24 1;
#X connect 15 0 23 1;
#X connect 16 0 17 0;
#X connect 17 0 12 0;
#X connect 19 0 26 0;
#X connect 20 0 12 0;
#X connect 21 0 22 0;
#X connect 22 0 20 0;
#X connect 23 0 19 0;
#X connect 24 0 16 0;
#X connect 25 0 24 0;
#X connect 26 0 12 0;
#X connect 29 0 3 1;
#X connect 29 0 3 0;
#X connect 30 0 9 0;
#X connect 31 0 32 0;
#X connect 32 0 3 0;
#X connect 32 0 3 1;
#X connect 33 0 31 1;
#X connect 33 0 32 1;
#X connect 35 0 5 1;
#X connect 36 0 39 0;
#X connect 36 1 55 0;
#X connect 37 0 45 0;
#X connect 38 0 40 0;
#X connect 39 0 38 0;
#X connect 40 0 62 0;
#X connect 41 0 39 1;
#X connect 42 0 61 0;
#X connect 43 0 42 0;
#X connect 44 0 43 0;
#X connect 45 0 44 0;
#X connect 47 0 49 0;
#X connect 47 1 56 0;
#X connect 48 0 50 0;
#X connect 49 0 48 0;
#X connect 50 0 62 0;
#X connect 51 0 49 1;
#X connect 53 0 45 1;
#X connect 53 0 44 1;
#X connect 53 0 43 1;
#X connect 53 0 42 1;
#X connect 55 0 62 0;
#X connect 56 0 62 0;
#X connect 57 0 37 0;
#X connect 58 0 37 0;
#X connect 59 0 37 0;
#X connect 61 0 60 0;
#X connect 61 0 60 1;
#X connect 62 0 63 0;
#X connect 62 0 63 1;
#X connect 63 0 37 1;
#X connect 65 0 57 0;
#X connect 65 0 59 0;
#X connect 65 0 58 0;
#X connect 66 0 59 1;
#X connect 66 0 58 1;
#X connect 66 0 57 1;
#X connect 71 0 102 0;
#X connect 72 0 78 0;
#X connect 72 1 120 0;
#X connect 73 0 121 0;
#X connect 75 0 77 0;
#X connect 76 0 75 0;
#X connect 77 0 82 0;
#X connect 78 0 76 0;
#X connect 79 0 76 1;
#X connect 81 0 109 1;
#X connect 82 0 83 1;
#X connect 82 0 83 0;
#X connect 83 0 73 1;
#X connect 84 0 99 0;
#X connect 84 1 97 0;
#X connect 85 0 71 0;
#X connect 86 0 89 1;
#X connect 87 0 98 1;
#X connect 88 0 97 1;
#X connect 89 0 90 0;
#X connect 90 0 85 0;
#X connect 92 0 100 0;
#X connect 93 0 101 0;
#X connect 94 0 85 0;
#X connect 95 0 96 0;
#X connect 96 0 94 0;
#X connect 97 0 92 0;
#X connect 98 0 89 0;
#X connect 99 0 98 0;
#X connect 100 0 85 0;
#X connect 101 0 102 1;
#X connect 102 0 73 0;
#X connect 105 0 125 0;
#X connect 107 0 109 0;
#X connect 107 1 119 0;
#X connect 108 0 110 0;
#X connect 109 0 108 0;
#X connect 110 0 111 0;
#X connect 111 0 112 0;
#X connect 111 0 112 1;
#X connect 112 0 113 1;
#X connect 113 0 118 0;
#X connect 114 0 116 0;
#X connect 114 0 117 0;
#X connect 116 0 117 1;
#X connect 117 0 118 1;
#X connect 118 0 74 1;
#X connect 118 0 74 0;
#X connect 119 0 111 0;
#X connect 120 0 82 0;
#X connect 121 0 122 0;
#X connect 122 0 74 0;
#X connect 122 0 74 1;
#X connect 123 0 121 1;
#X connect 123 0 122 1;
#X connect 125 0 113 0;
#X connect 126 0 125 1;
#X connect 130 0 170 0;
#X connect 130 0 155 0;
#X connect 131 0 133 0;
#X connect 131 0 164 0;
#X connect 131 1 152 0;
#X connect 132 0 130 0;
#X connect 133 0 151 0;
#X connect 134 0 133 1;
#X connect 134 0 137 1;
#X connect 135 0 153 1;
#X connect 136 0 152 1;
#X connect 137 0 138 0;
#X connect 138 0 132 0;
#X connect 141 0 132 0;
#X connect 142 0 141 0;
#X connect 144 0 151 1;
#X connect 146 0 132 0;
#X connect 147 0 146 0;
#X connect 148 0 132 0;
#X connect 149 0 150 0;
#X connect 150 0 148 0;
#X connect 151 0 147 0;
#X connect 152 0 142 0;
#X connect 153 0 137 0;
#X connect 154 0 161 0;
#X connect 154 1 157 0;
#X connect 155 0 156 1;
#X connect 155 0 156 0;
#X connect 157 0 180 0;
#X connect 158 0 160 0;
#X connect 159 0 158 0;
#X connect 160 0 180 0;
#X connect 161 0 159 0;
#X connect 162 0 159 1;
#X connect 162 0 172 0;
#X connect 164 0 153 0;
#X connect 165 0 169 0;
#X connect 165 1 174 0;
#X connect 166 0 168 0;
#X connect 167 0 166 0;
#X connect 168 0 179 0;
#X connect 169 0 167 0;
#X connect 170 0 178 0;
#X connect 171 0 156 1;
#X connect 171 0 156 0;
#X connect 172 0 167 1;
#X connect 173 0 177 0;
#X connect 174 0 173 0;
#X connect 175 0 174 1;
#X connect 177 0 179 0;
#X connect 178 0 171 0;
#X connect 179 0 171 1;
#X connect 180 0 181 1;
#X connect 180 0 181 0;
#X connect 181 0 155 1;
#X connect 183 0 184 0;
#X connect 184 0 11 0;
#X connect 184 0 1 0;
#X connect 185 0 131 0;
#X connect 185 0 154 0;
#X connect 185 0 165 0;
#X connect 186 0 185 0;
#X connect 187 0 36 0;
#X connect 188 0 47 0;
#X connect 189 0 84 0;
#X connect 189 0 72 0;
#X connect 189 0 107 0;
#X connect 190 0 187 0;
#X connect 191 0 188 0;
#X connect 192 0 189 0;
